<svg width="510" height="482" viewBox="0 0 510 482" fill="none" xmlns="http://www.w3.org/2000/svg">
<path d="M79.5022 438.104C177.902 495.911 337.447 495.911 435.858 438.104C534.27 380.298 534.258 286.582 435.858 228.775C337.458 170.969 177.902 170.956 79.4904 228.775C-18.9213 286.595 -18.9096 380.298 79.5022 438.104Z" fill="#FEEBD1"/>
<path d="M340.019 448.723C359.914 448.723 376.041 440.078 376.041 429.414C376.041 418.75 359.914 410.106 340.019 410.106C320.125 410.106 303.997 418.75 303.997 429.414C303.997 440.078 320.125 448.723 340.019 448.723Z" fill="#F0F0F0"/>
<path d="M58.3379 95.5178V161.948C58.3379 164.128 59.7003 165.026 61.3916 163.93L198.55 74.8755C199.438 74.2233 200.177 73.3456 200.707 72.3132C201.237 71.2809 201.545 70.1228 201.604 68.9324V2.44895C201.604 0.269813 200.23 -0.628255 198.55 0.467916L61.3916 89.5219C60.4958 90.177 59.7517 91.0625 59.2207 92.1051C58.6896 93.1478 58.387 94.3176 58.3379 95.5178Z" fill="#F0F0F0"/>
<path d="M67.8856 94.4745L108.993 67.7966C110.884 66.5684 112.399 67.5589 112.399 70.0021V116.451C112.335 117.775 111.993 119.064 111.401 120.212C110.809 121.36 109.984 122.333 108.993 123.054L67.8856 149.745C66.0063 150.96 64.4795 149.97 64.4795 147.527V101.104C64.5431 99.7758 64.8848 98.4829 65.4766 97.3309C66.0685 96.1789 66.8938 95.2002 67.8856 94.4745Z" fill="#FAFAFA"/>
<path d="M101.171 90.9747L88.9444 119.475L82.7196 115.434C82.1218 115.066 81.4206 114.974 80.7634 115.176C80.1062 115.378 79.5444 115.858 79.196 116.517L64.4795 145.057V147.553C64.4795 149.996 66.0063 150.987 67.8856 149.772L108.993 123.081C109.982 122.358 110.805 121.383 111.397 120.236C111.989 119.089 112.332 117.801 112.399 116.477V100.14L104.178 90.4464C103.994 90.1577 103.743 89.932 103.452 89.7946C103.161 89.6572 102.841 89.6135 102.53 89.6683C102.218 89.7231 101.925 89.8742 101.686 90.1049C101.446 90.3356 101.268 90.6367 101.171 90.9747Z" fill="#0A61C9"/>
<path d="M70.6574 111.472C73.1974 109.609 75.3112 107.099 76.8273 104.146C78.3435 101.193 79.2194 97.8794 79.384 94.4745C79.384 91.6086 78.5618 89.5351 77.2111 88.4258L67.8856 94.4745C66.8969 95.1976 66.0735 96.1721 65.4818 97.3192C64.8901 98.4664 64.5467 99.754 64.4795 101.078V112.132C66.0886 113.189 68.2497 113.03 70.6574 111.472Z" fill="#0A61C9"/>
<path d="M127.738 59.9649L189.505 19.8556C190.915 18.9444 192.054 19.5915 192.054 21.3084C191.992 22.2705 191.729 23.2026 191.286 24.0288C190.843 24.8549 190.233 25.5519 189.505 26.0629L127.738 66.159C126.329 67.0702 125.189 66.4231 125.189 64.7062C125.253 63.7464 125.517 62.8169 125.96 61.9932C126.403 61.1695 127.012 60.4746 127.738 59.9649Z" fill="#FAFAFA"/>
<path d="M127.738 73.6869L189.505 33.5776C190.915 32.6663 192.054 33.3134 192.054 35.0303C191.992 35.9925 191.729 36.9245 191.286 37.7507C190.843 38.5769 190.233 39.2738 189.505 39.7848L127.738 79.8809C126.329 80.7922 125.189 80.1451 125.189 78.4414C125.251 77.4792 125.515 76.5471 125.958 75.721C126.4 74.8948 127.01 74.1979 127.738 73.6869Z" fill="#FAFAFA"/>
<path d="M127.738 87.4088L189.505 47.3127C190.915 46.4015 192.054 47.0486 192.054 48.7523C191.992 49.7144 191.729 50.6465 191.286 51.4727C190.843 52.2988 190.233 52.9958 189.505 53.5068L127.738 93.6029C126.329 94.5273 125.189 93.8802 125.189 92.1633C125.251 91.2012 125.515 90.2691 125.958 89.4429C126.4 88.6168 127.01 87.9198 127.738 87.4088Z" fill="#FAFAFA"/>
<path d="M127.738 101.131L189.505 61.0347C190.915 60.1234 192.054 60.7705 192.054 62.4874C191.99 63.4473 191.726 64.3767 191.283 65.2004C190.841 66.0242 190.231 66.719 189.505 67.2287L127.738 107.404C126.329 108.315 125.189 107.668 125.189 105.951C125.242 104.978 125.501 104.032 125.945 103.194C126.388 102.356 127.003 101.648 127.738 101.131Z" fill="#FAFAFA"/>
<path d="M29.6797 304.53V207.05C29.7361 205.859 30.0422 204.7 30.5729 203.667C31.1036 202.634 31.8439 201.757 32.7334 201.107L136.466 133.752C138.145 132.656 139.519 133.54 139.519 135.733V233.213C139.46 234.403 139.153 235.561 138.622 236.594C138.092 237.626 137.353 238.504 136.466 239.156L32.7334 306.511C31.0421 307.607 29.6797 306.722 29.6797 304.53Z" fill="#F0F0F0"/>
<path d="M29.6797 299.657V304.53C29.6797 306.722 31.0421 307.607 32.7334 306.511L136.466 239.156C137.353 238.504 138.092 237.626 138.622 236.594C139.153 235.561 139.46 234.403 139.519 233.213V228.326L29.6797 299.657Z" fill="#0A61C9"/>
<path d="M79.8656 211.25L90.4361 210.629C91.7281 210.55 92.0804 211.369 91.223 212.478L79.0787 228.009C78.2213 229.105 77.5283 228.802 77.5283 227.349V214.036C77.5329 213.326 77.7764 212.644 78.21 212.127C78.6436 211.61 79.235 211.296 79.8656 211.25Z" fill="#0A61C9"/>
<path d="M77.1412 236.528C75.8745 236.546 74.6261 236.186 73.5237 235.484C70.9163 233.781 69.4834 230.202 69.4834 225.526C69.4834 215.991 75.4616 204.395 82.814 199.575C86.4432 197.211 89.8611 196.854 92.4919 198.545C95.1228 200.235 96.544 203.827 96.544 208.49C96.544 218.038 90.554 229.621 83.2134 234.441C81.3862 235.721 79.2926 236.441 77.1412 236.528ZM88.8862 198.399C86.8788 198.489 84.9271 199.167 83.2251 200.367C76.0959 204.99 70.3055 216.282 70.3055 225.526C70.3055 229.911 71.5975 233.173 73.9465 234.692C76.2955 236.211 79.4432 235.854 82.814 233.662C89.9433 229.026 95.7336 217.814 95.7336 208.49C95.7336 204.105 94.4416 200.856 92.0926 199.324C91.1099 198.706 90.0005 198.387 88.8745 198.399H88.8862Z" fill="#0A61C9"/>
<path d="M35.3996 116.464L28.975 112.317C25.9096 110.006 21.6461 110.098 16.9364 113.162C7.54032 119.237 0 134.65 0 147.593V150.538C0 163.48 15.48 177.533 15.48 177.533L21.7988 181.561C21.7988 181.561 18.0052 176.687 18.4397 175.684C22.6327 166.122 33.8492 139.101 33.8492 128.535V125.59C33.873 123.458 33.6319 121.334 33.1328 119.277L33.8492 119.739L35.3996 116.464ZM16.9246 146.14C12.2266 149.177 8.45643 146.708 8.45643 140.646C10.9699 140.197 17.3004 128.046 16.9246 124.15C21.6226 121.113 25.381 123.582 25.3928 129.644C25.2336 132.949 24.3839 136.165 22.9126 139.031C21.4413 141.897 19.3898 144.332 16.9246 146.14Z" fill="#0A61C9"/>
<g opacity="0.2">
<path d="M35.3996 116.464L28.975 112.317C25.9096 110.006 21.6461 110.098 16.9364 113.162C7.54032 119.237 0 134.65 0 147.593V150.538C0 163.48 15.48 177.533 15.48 177.533L21.7988 181.561C21.7988 181.561 18.0052 176.687 18.4397 175.684C22.6327 166.122 33.8492 139.101 33.8492 128.535V125.59C33.873 123.458 33.6319 121.334 33.1328 119.277L33.8492 119.739L35.3996 116.464ZM16.9246 146.14C12.2266 149.177 8.45643 146.708 8.45643 140.646C10.9699 140.197 17.3004 128.046 16.9246 124.15C21.6226 121.113 25.381 123.582 25.3928 129.644C25.2336 132.949 24.3839 136.165 22.9126 139.031C21.4413 141.897 19.3898 144.332 16.9246 146.14Z" fill="black"/>
</g>
<path d="M35.3991 116.464C35.3289 116.408 35.2542 116.359 35.176 116.319C32.1575 114.417 28.129 114.681 23.6893 117.56C16.9947 121.918 11.2044 131.044 8.42078 140.646C7.34436 144.299 6.77392 148.116 6.72949 151.964V154.949C6.72949 164.92 16.7715 176.489 21.3873 181.283C21.4872 181.384 21.5931 181.477 21.7044 181.561C21.9758 181.748 22.2791 181.869 22.5946 181.916C22.9101 181.963 23.2309 181.935 23.5363 181.834C23.8417 181.734 24.1249 181.562 24.3677 181.331C24.6105 181.099 24.8075 180.813 24.9461 180.491C28.9394 171.246 40.5552 143.67 40.5552 132.946V130.001C40.6257 123.345 38.6173 118.643 35.3991 116.464ZM15.3738 146.945C15.2763 146.318 15.2292 145.681 15.2329 145.044C15.388 141.738 16.2347 138.52 17.7041 135.651C19.1735 132.783 21.2241 130.345 23.6893 128.535C24.1818 128.216 24.6963 127.942 25.2279 127.716C29.1743 126.105 32.1575 128.654 32.1575 134.029C31.9993 137.332 31.1499 140.546 29.6784 143.41C28.2069 146.274 26.1549 148.707 23.6893 150.511C19.5433 153.232 16.0903 151.594 15.3738 146.945Z" fill="#0A61C9"/>
<path d="M32.1577 134.042C31.9995 137.345 31.1501 140.559 29.6786 143.424C28.2071 146.288 26.1551 148.721 23.6895 150.525C19.5435 153.166 16.0905 151.594 15.374 146.945C15.9122 146.732 16.4313 146.463 16.9244 146.14C19.388 144.332 21.4377 141.896 22.907 139.029C24.3763 136.163 25.2239 132.948 25.3808 129.644C25.3862 129.002 25.335 128.361 25.2281 127.729C29.1744 126.118 32.1577 128.667 32.1577 134.042Z" fill="#0A61C9"/>
<g opacity="0.2">
<path d="M32.1567 134.042C31.9985 137.345 31.1491 140.559 29.6776 143.424C28.2061 146.288 26.1541 148.721 23.6885 150.525C19.5425 153.166 16.0895 151.594 15.373 146.945C15.9112 146.732 16.4303 146.463 16.9234 146.14C19.387 144.332 21.4367 141.895 22.9061 139.029C24.3754 136.163 25.2229 132.948 25.3798 129.644C25.3852 129.002 25.334 128.361 25.2271 127.729C29.1735 126.118 32.1567 128.667 32.1567 134.042Z" fill="black"/>
</g>
<path d="M155.564 298.019C155.564 298.019 159.804 267.643 150.384 241.52C140.965 215.397 128.268 213.785 121.691 217.497C115.114 221.208 119.342 235.696 125.215 245.429C133.037 258.2 145.956 285.697 145.533 310.394L155.564 298.019Z" fill="#0A61C9"/>
<path opacity="0.2" d="M155.564 298.019C155.564 298.019 159.804 267.643 150.384 241.52C140.965 215.397 128.268 213.785 121.691 217.497C115.114 221.208 119.342 235.696 125.215 245.429C133.037 258.2 145.956 285.697 145.533 310.394L155.564 298.019Z" fill="black"/>
<path d="M151.335 299.947C151.229 299.944 151.126 299.917 151.03 299.867C150.934 299.818 150.848 299.748 150.776 299.66C150.705 299.573 150.65 299.47 150.615 299.358C150.58 299.247 150.565 299.128 150.571 299.01C152.122 257.421 133.647 226.372 125.672 220.323C125.585 220.257 125.51 220.172 125.452 220.074C125.394 219.976 125.353 219.865 125.333 219.749C125.313 219.634 125.313 219.514 125.334 219.399C125.355 219.283 125.396 219.173 125.454 219.075C125.513 218.977 125.588 218.893 125.676 218.828C125.763 218.762 125.861 218.717 125.964 218.694C126.068 218.672 126.174 218.672 126.276 218.695C126.379 218.719 126.477 218.765 126.564 218.831C135.96 225.883 153.719 257.632 152.157 299.089C152.154 299.206 152.13 299.322 152.087 299.429C152.044 299.536 151.982 299.632 151.906 299.712C151.829 299.792 151.739 299.854 151.641 299.894C151.543 299.934 151.439 299.953 151.335 299.947Z" fill="#FEEBD1"/>
<path d="M153.896 334.087C152.287 329.544 148.129 324.472 137.453 319.058C126.776 313.643 118.743 306.419 117.263 301.189C116.818 299.744 116.759 298.184 117.095 296.703C117.432 295.221 118.147 293.883 119.154 292.855C119.154 292.855 109.088 291.534 107.82 284.601C106.234 275.858 115.031 275.29 115.031 275.29C115.031 275.29 103.486 257.012 100.42 248.876C97.355 240.741 100.89 240.252 108.337 243.356C115.783 246.459 129.971 262.083 132.167 266.851C132.167 266.851 136.008 261.568 140.142 265.041C144.276 268.515 144.476 278.909 142.033 282.659C143.681 282.314 145.382 282.514 146.93 283.233C148.479 283.953 149.809 285.162 150.76 286.714C154.964 292.908 156.35 308.4 156.35 308.4L153.896 334.087Z" fill="#0A61C9"/>
<path d="M154.647 329.861C154.469 329.858 154.296 329.79 154.156 329.665C154.016 329.541 153.916 329.369 153.872 329.174C148.164 302.43 121.068 259.745 104.238 246.169C104.152 246.1 104.079 246.013 104.023 245.913C103.968 245.813 103.93 245.702 103.912 245.585C103.895 245.469 103.898 245.349 103.922 245.234C103.945 245.119 103.989 245.01 104.05 244.914C104.111 244.818 104.188 244.736 104.277 244.673C104.366 244.611 104.465 244.568 104.569 244.549C104.672 244.529 104.778 244.533 104.881 244.559C104.983 244.585 105.08 244.634 105.165 244.703C122.207 258.451 149.644 301.677 155.434 328.751C155.48 328.984 155.443 329.228 155.331 329.43C155.219 329.633 155.041 329.778 154.835 329.834L154.647 329.861Z" fill="#FEEBD1"/>
<path d="M367.244 60.5592C367.104 60.5574 366.967 60.5165 366.844 60.4404L363.544 58.2877C363.453 58.2287 363.373 58.1502 363.309 58.0565C363.245 57.9629 363.198 57.856 363.171 57.7419C363.144 57.6279 363.137 57.5089 363.15 57.3918C363.164 57.2747 363.198 57.1617 363.25 57.0594C363.303 56.9571 363.373 56.8674 363.456 56.7954C363.539 56.7234 363.634 56.6706 363.736 56.64C363.837 56.6093 363.943 56.6014 364.047 56.6167C364.151 56.6321 364.252 56.6703 364.343 56.7292L367.643 58.882C367.734 58.9408 367.814 59.0193 367.878 59.1129C367.942 59.2066 367.989 59.3135 368.017 59.4276C368.044 59.5417 368.051 59.6607 368.037 59.7778C368.023 59.895 367.989 60.0079 367.937 60.1102C367.866 60.247 367.765 60.3605 367.644 60.4393C367.522 60.5181 367.384 60.5595 367.244 60.5592Z" fill="white"/>
<path d="M153.896 138.863V335.355C153.896 337.547 155.258 338.432 156.937 337.336L360.761 205.016C361.649 204.364 362.387 203.486 362.918 202.454C363.448 201.422 363.755 200.263 363.815 199.073V2.58102C363.815 0.388678 362.441 -0.496184 360.761 0.599988L156.937 132.92C156.051 133.572 155.313 134.45 154.785 135.482C154.256 136.515 153.952 137.673 153.896 138.863Z" fill="#455A64"/>
<path d="M177.75 175.155C177.75 182.01 182.295 184.598 187.921 180.953L349.498 76.0509V51.2748L187.921 156.164C182.295 159.822 177.75 168.314 177.75 175.155Z" fill="#F5F5F5"/>
<path d="M363.239 42.3866C368.853 38.7415 373.41 41.33 373.41 48.1712C373.41 55.0124 368.853 63.5176 363.239 67.1627L349.556 76.0509V51.2748L363.239 42.3866Z" fill="#0A61C9"/>
<path d="M358.306 63.2667C357.721 63.276 357.145 63.1071 356.638 62.778C356.014 62.3084 355.515 61.658 355.192 60.8955C354.87 60.133 354.736 59.2868 354.806 58.4461C354.891 56.379 355.415 54.3648 356.334 52.5724C357.254 50.78 358.542 49.2617 360.091 48.1448C360.683 47.6023 361.407 47.2752 362.168 47.207C362.929 47.1387 363.69 47.3325 364.351 47.7626C365.011 48.1927 365.539 48.8388 365.865 49.6148C366.191 50.3908 366.299 51.26 366.175 52.1068C366.088 54.1732 365.563 56.1862 364.643 57.9781C363.724 59.77 362.437 61.2889 360.89 62.4082C360.11 62.9439 359.219 63.24 358.306 63.2667ZM362.664 49.0693C362.034 49.1043 361.422 49.3227 360.89 49.7032C359.593 50.6722 358.513 51.9658 357.734 53.4826C356.956 54.9995 356.5 56.6983 356.403 58.4461C356.282 58.9721 356.318 59.5282 356.505 60.0292C356.692 60.5302 357.02 60.9485 357.438 61.2198C357.857 61.4912 358.343 61.6006 358.822 61.5314C359.302 61.4622 359.747 61.2181 360.091 60.8366C361.39 59.869 362.471 58.5758 363.249 57.0587C364.028 55.5415 364.483 53.8419 364.578 52.0936C364.638 51.5699 364.574 51.0377 364.393 50.5506C364.211 50.0636 363.919 49.6392 363.544 49.3202C363.277 49.1477 362.972 49.061 362.664 49.0693Z" fill="white"/>
<path d="M365.588 96.614L209.379 197.964C208.488 198.612 207.747 199.489 207.216 200.522C206.685 201.555 206.38 202.715 206.325 203.907V257.963C206.325 260.155 207.688 261.04 209.379 259.944L365.588 158.554C366.478 157.904 367.218 157.027 367.748 155.994C368.279 154.962 368.585 153.802 368.642 152.611V98.5951C368.583 96.4027 367.221 95.5179 365.588 96.614Z" fill="#0A61C9"/>
<path opacity="0.2" d="M365.588 96.614L209.379 197.964C208.488 198.612 207.747 199.489 207.216 200.522C206.685 201.555 206.38 202.715 206.325 203.907V257.963C206.325 260.155 207.688 261.04 209.379 259.944L365.588 158.554C366.478 157.904 367.218 157.027 367.748 155.994C368.279 154.962 368.585 153.802 368.642 152.611V98.5951C368.583 96.4027 367.221 95.5179 365.588 96.614Z" fill="white"/>
<path d="M266.166 170.11L294.471 151.726C295.881 150.815 297.02 151.462 297.02 153.179C296.956 154.139 296.692 155.068 296.249 155.892C295.807 156.716 295.198 157.411 294.471 157.92L266.166 176.304C264.756 177.216 263.617 176.569 263.617 174.852C263.681 173.892 263.945 172.962 264.388 172.139C264.831 171.315 265.44 170.62 266.166 170.11Z" fill="white"/>
<path d="M263.617 187.24C263.617 188.957 264.792 189.604 266.166 188.692L351.729 133.144C352.453 132.631 353.061 131.933 353.501 131.107C353.942 130.281 354.204 129.35 354.265 128.39C354.265 126.686 353.091 126.039 351.729 126.95L266.166 182.498C265.44 183.008 264.831 183.703 264.388 184.527C263.945 185.35 263.681 186.28 263.617 187.24Z" fill="white"/>
<path d="M263.617 199.628C263.617 201.345 264.792 201.992 266.166 201.08L351.729 145.532C352.453 145.019 353.061 144.321 353.501 143.495C353.942 142.669 354.204 141.739 354.265 140.778C354.265 139.074 353.091 138.427 351.729 139.338L266.166 194.886C265.44 195.396 264.831 196.091 264.388 196.915C263.945 197.738 263.681 198.668 263.617 199.628Z" fill="white"/>
<path d="M263.617 212.016C263.617 213.733 264.792 214.38 266.166 213.469L351.729 157.92C352.453 157.407 353.061 156.709 353.501 155.883C353.942 155.057 354.204 154.127 354.265 153.166C354.265 151.462 353.091 150.815 351.729 151.726L266.166 207.274C265.44 207.784 264.831 208.479 264.388 209.303C263.945 210.127 263.681 211.056 263.617 212.016Z" fill="white"/>
<path d="M214.194 201.054L251.027 177.136C252.718 176.053 254.081 176.938 254.081 179.117V220.759C254.023 221.95 253.717 223.108 253.186 224.141C252.655 225.174 251.916 226.051 251.027 226.702L214.194 250.606C212.515 251.702 211.141 250.818 211.141 248.638V206.997C211.197 205.806 211.503 204.647 212.034 203.614C212.565 202.581 213.305 201.704 214.194 201.054Z" fill="white"/>
<path d="M244.027 197.924L233.069 223.466L227.49 219.847C226.951 219.498 226.31 219.403 225.709 219.584C225.108 219.764 224.595 220.206 224.283 220.812L211.141 246.393V248.625C211.141 250.818 212.515 251.702 214.194 250.606L251.027 226.702C251.916 226.052 252.657 225.175 253.187 224.142C253.718 223.109 254.024 221.95 254.081 220.759V206.139L246.669 197.449C246.501 197.206 246.279 197.018 246.024 196.906C245.77 196.793 245.493 196.759 245.223 196.807C244.953 196.856 244.699 196.985 244.489 197.182C244.279 197.378 244.119 197.634 244.027 197.924Z" fill="#0A61C9"/>
<path d="M216.673 216.295C218.95 214.624 220.845 212.374 222.204 209.726C223.563 207.078 224.348 204.107 224.495 201.054C224.573 200.041 224.437 199.021 224.098 198.077C223.759 197.134 223.227 196.294 222.545 195.626L214.194 201.054C213.305 201.704 212.565 202.581 212.034 203.614C211.503 204.647 211.197 205.806 211.141 206.997V216.902C212.562 217.827 214.511 217.695 216.673 216.295Z" fill="#0A61C9"/>
<path d="M365.588 177.136L209.379 278.486C208.489 279.136 207.749 280.013 207.218 281.046C206.688 282.079 206.382 283.238 206.325 284.429V338.525C206.325 340.704 207.688 341.589 209.379 340.506L365.588 239.09C366.478 238.44 367.218 237.563 367.748 236.53C368.279 235.497 368.585 234.338 368.642 233.147V179.117C368.583 176.938 367.221 176.08 365.588 177.136Z" fill="#0A61C9"/>
<path opacity="0.2" d="M365.588 177.136L209.379 278.486C208.489 279.136 207.749 280.013 207.218 281.046C206.688 282.079 206.382 283.238 206.325 284.429V338.525C206.325 340.704 207.688 341.589 209.379 340.506L365.588 239.09C366.478 238.44 367.218 237.563 367.748 236.53C368.279 235.497 368.585 234.338 368.642 233.147V179.117C368.583 176.938 367.221 176.08 365.588 177.136Z" fill="white"/>
<path d="M266.166 250.633L294.471 232.262C295.881 231.351 297.02 231.998 297.02 233.701C296.958 234.664 296.695 235.596 296.252 236.422C295.809 237.248 295.199 237.945 294.471 238.456L266.166 256.827C264.756 257.738 263.617 257.091 263.617 255.387C263.679 254.425 263.942 253.493 264.385 252.667C264.828 251.841 265.438 251.144 266.166 250.633Z" fill="white"/>
<path d="M263.617 267.775C263.617 269.479 264.792 270.126 266.166 269.215L351.729 213.667C352.452 213.155 353.058 212.459 353.499 211.635C353.939 210.812 354.202 209.884 354.265 208.925C354.265 207.208 353.091 206.561 351.729 207.473L266.166 263.021C265.438 263.532 264.828 264.229 264.385 265.055C263.942 265.881 263.679 266.813 263.617 267.775Z" fill="white"/>
<path d="M263.617 280.163C263.617 281.867 264.792 282.514 266.166 281.603L351.729 226.055C352.452 225.543 353.058 224.847 353.499 224.024C353.939 223.2 354.202 222.272 354.265 221.313C354.265 219.597 353.091 218.949 351.729 219.861L266.166 275.409C265.438 275.92 264.828 276.617 264.385 277.443C263.942 278.269 263.679 279.201 263.617 280.163Z" fill="white"/>
<path d="M263.617 292.551C263.617 294.255 264.792 294.902 266.166 293.991L351.729 238.443C352.452 237.931 353.058 237.235 353.499 236.412C353.939 235.588 354.202 234.66 354.265 233.701C354.265 231.985 353.091 231.337 351.729 232.249L266.166 287.797C265.438 288.308 264.828 289.005 264.385 289.831C263.942 290.657 263.679 291.589 263.617 292.551Z" fill="white"/>
<path d="M214.194 281.59L251.027 257.672C252.718 256.576 254.081 257.461 254.081 259.653V301.281C254.026 302.473 253.721 303.633 253.19 304.666C252.659 305.699 251.918 306.576 251.027 307.224L214.194 331.142C212.515 332.238 211.141 331.353 211.141 329.161V287.533C211.197 286.342 211.503 285.182 212.034 284.15C212.565 283.117 213.305 282.24 214.194 281.59Z" fill="white"/>
<path d="M244.027 278.46L233.069 304.002L227.49 300.37C227.222 300.197 226.927 300.086 226.621 300.041C226.315 299.997 226.004 300.021 225.707 300.112C225.409 300.202 225.13 300.358 224.886 300.57C224.641 300.782 224.437 301.046 224.283 301.347L211.141 326.929V329.161C211.141 331.353 212.515 332.238 214.194 331.142L251.027 307.224C251.916 306.577 252.656 305.702 253.187 304.672C253.718 303.641 254.024 302.484 254.081 301.294V286.661L246.669 277.984C246.504 277.737 246.281 277.546 246.026 277.43C245.771 277.315 245.493 277.28 245.221 277.329C244.949 277.377 244.695 277.509 244.484 277.708C244.274 277.907 244.116 278.167 244.027 278.46Z" fill="#0A61C9"/>
<path d="M216.673 296.817C218.949 295.15 220.844 292.901 222.204 290.256C223.563 287.61 224.348 284.641 224.495 281.59C224.573 280.576 224.437 279.556 224.098 278.613C223.759 277.67 223.227 276.83 222.545 276.162L214.194 281.59C213.305 282.24 212.565 283.117 212.034 284.15C211.503 285.182 211.197 286.342 211.141 287.533V297.438C212.562 298.349 214.511 298.217 216.673 296.817Z" fill="#0A61C9"/>
<path d="M363.815 10.9938V2.58102C363.815 0.388678 362.441 -0.496184 360.761 0.599988L156.949 132.92C156.06 133.57 155.319 134.447 154.789 135.48C154.258 136.512 153.952 137.672 153.896 138.863V147.289L363.815 10.9938Z" fill="#0A61C9"/>
<path d="M338.809 18.0727C338.152 18.5578 337.605 19.2098 337.214 19.976C336.822 20.7423 336.596 21.6013 336.554 22.4838C336.554 24.1082 337.564 24.7686 338.809 23.9498C339.47 23.4713 340.02 22.823 340.414 22.0583C340.808 21.2936 341.035 20.4345 341.076 19.5519C341.076 17.9274 340.065 17.2671 338.809 18.0727Z" fill="#F5F5F5"/>
<path d="M347.795 12.3145C347.136 12.7982 346.587 13.4495 346.193 14.2158C345.8 14.9821 345.572 15.8419 345.528 16.7256C345.528 18.35 346.55 18.9972 347.795 18.1916C348.456 17.7103 349.006 17.0595 349.4 16.2927C349.794 15.5259 350.021 14.6649 350.062 13.7805C350.062 12.09 349.052 11.4428 347.795 12.3145Z" fill="#F5F5F5"/>
<path d="M356.779 6.42424C356.119 6.90267 355.568 7.55098 355.174 8.31566C354.78 9.08035 354.553 9.93948 354.513 10.8221C354.513 12.4466 355.523 13.1069 356.779 12.3013C357.436 11.8162 357.983 11.1642 358.375 10.398C358.766 9.63175 358.992 8.77273 359.035 7.8902C359.035 6.26575 358.024 5.60541 356.779 6.42424Z" fill="#F5F5F5"/>
<path d="M367.067 420.698C367.422 421.713 367.666 422.773 367.795 423.854C368.126 424.973 368.203 426.167 368.018 427.328C367.227 428.81 365.969 429.903 364.494 430.392C363.445 430.663 362.357 430.686 361.299 430.459C360.242 430.231 359.238 429.759 358.352 429.071C356.202 427.631 354.593 425.875 351.54 424.911C349.362 424.383 347.311 423.334 345.526 421.834C343.835 420.315 341.58 416.089 344.81 415.111C348.04 414.134 355.075 417.581 361.476 417.898L367.067 420.698Z" fill="#263238"/>
<path d="M366.761 415.943C366.761 415.943 367.137 420.988 367.137 421.609C367.137 423.313 361.546 425.571 360.513 421.609L359.62 416.247L366.761 415.943Z" fill="#F28F8F"/>
<path d="M359.902 305.256C361.824 308.435 363.585 311.733 365.175 315.135C365.175 315.135 365.727 322.478 365.727 327.365C365.727 336.345 364.494 343.279 363.378 360.976C365.195 364.457 366.235 368.382 366.409 372.413C366.878 380.43 366.89 380.338 366.937 417.317C365.867 417.966 364.693 418.368 363.482 418.5C362.272 418.631 361.051 418.489 359.89 418.083L349.32 366.299L348.145 345.973L344.833 320.708L359.902 305.256Z" fill="#37474F"/>
<path d="M334.886 429.956C335.261 430.392 335.132 431.276 335.308 432.729C335.504 433.847 335.555 434.99 335.461 436.123C334.845 437.694 333.731 438.951 332.337 439.65C331.323 440.061 330.245 440.232 329.17 440.152C328.095 440.073 327.046 439.744 326.089 439.187C323.81 438.052 322.013 436.546 318.877 436.005C316.658 435.79 314.506 435.037 312.57 433.799C310.726 432.478 308.013 428.648 311.114 427.196C314.214 425.743 321.99 428.345 328.367 427.763L334.886 429.956Z" fill="#263238"/>
<path d="M336.352 423.616C336.352 423.616 335.178 429.375 334.861 430.656C334.156 433.733 328.084 433.891 328.084 430.339L328.495 422.15L336.352 423.616Z" fill="#F28F8F"/>
<path d="M346.196 306.828C349.238 313.55 352.175 319.48 352.269 326.638C352.492 341.787 346.901 358.467 344.846 369.415C345.458 373.378 345.632 377.41 345.362 381.42C344.951 386.003 335.661 427.645 335.661 427.645C335.661 427.645 330.493 428.86 328.297 426.231L330.904 346.052L331.609 322.769L346.196 306.828Z" fill="#37474F"/>
<path d="M342.014 265.768L343.928 277.694L353.512 276.901L351.504 263.391L342.014 265.768Z" fill="#FFA8A7"/>
<path d="M363.625 276.03C362.674 272.794 359.021 269.268 355.404 270.034C349.97 271.072 344.615 272.573 339.384 274.524C336.036 275.845 332.982 279.133 332.701 291.521L331.655 322.689C333.103 324.136 334.839 325.169 336.717 325.701C341.803 327.272 345.162 328.21 352.89 326.308C362.956 323.838 365.352 316.984 365.352 316.984C365.352 316.984 364.964 300.489 364.659 291.521C364.412 283.901 364.271 278.261 363.625 276.03Z" fill="#455A64"/>
<path d="M337.927 250.54L289.126 235.656C284.71 234.798 282.866 246.922 287.282 247.767L337.399 253.459L337.927 250.54Z" fill="#263238"/>
<path d="M323.892 275.686L313.92 276.03C313.92 276.03 315.424 259.349 316.352 257.157C317.279 254.965 319.499 254.516 321.707 253.816C323.915 253.116 323.904 251.927 323.904 251.927L321.919 251.702C320.181 251.504 319.488 249.061 320.239 247.41C320.603 246.644 321.191 245.429 322.248 245.759L324.879 246.565C324.919 245.26 324.63 243.968 324.045 242.841C323.164 241.744 322.576 242.088 320.815 241.401C319.511 240.886 316.845 239.975 314.696 240.965C312.546 241.956 310.914 246.499 310.362 249.708C309.803 253.419 308.898 257.054 307.66 260.551C305.746 266.494 302.962 278.697 302.669 283.584C302.539 285.842 302.727 287.189 304.959 287.784C307.19 288.378 323.61 288.418 323.61 288.418L323.892 275.686Z" fill="#FFA8A7"/>
<path d="M334.92 251.65C334.92 251.65 332.571 255.506 332.9 255.929C333.43 256.326 334.019 256.617 334.638 256.787L334.92 251.65Z" fill="#FFA8A7"/>
<path d="M342.003 239.473C339.771 240.794 335.919 243.078 334.85 252.27C333.758 261.7 335.202 264.738 336.33 265.992C337.105 266.838 341.263 266.89 343.377 266.177C345.984 265.306 351.869 262.783 354.558 257.936C357.718 252.231 358.422 244.597 354.864 241.56C353.053 240.015 350.923 239.013 348.673 238.648C346.423 238.283 344.128 238.567 342.003 239.473Z" fill="#FFA8A7"/>
<path d="M348.568 353.277L353.654 337.111C357.596 335.54 361.128 332.889 363.931 329.399C363.931 329.399 362.756 334.008 354.723 338.736L349.144 354.029V362.535L348.568 353.277Z" fill="#263238"/>
<path d="M334.392 242.577C335.12 244.835 336.353 250.382 341.497 252.693C341.497 252.693 342.237 249.167 344.868 249.537C347.499 249.906 347.957 253.697 346.336 256.048C344.715 258.398 343.142 257.553 343.142 257.553C343.142 257.553 342.789 262.611 345.796 264.909C346.915 265.652 348.173 266.091 349.469 266.195C350.765 266.298 352.065 266.061 353.266 265.504C354.992 264.619 357.447 259.957 358.88 256.127C361.91 248.044 362.345 241.599 357.706 239.513C357.13 235.841 355.662 234.454 352.702 233.767C346.336 232.302 341.521 237.003 336.177 236.171C333.44 235.735 333.546 239.988 334.392 242.577Z" fill="#263238"/>
<path d="M357.858 240.794L360.864 238.694C360.602 238.282 360.211 237.997 359.769 237.898C359.327 237.799 358.869 237.893 358.486 238.16C358.104 238.427 357.826 238.848 357.709 239.337C357.592 239.826 357.645 240.347 357.858 240.794Z" fill="#263238"/>
<path d="M321.66 275.462C321.66 275.462 335.695 274.55 339.277 274.524C342.859 274.498 346.665 281.378 344.433 286.067C342.953 289.144 338.338 290.2 332.524 290.517C326.71 290.834 320.849 290.834 320.849 290.834C320.849 290.834 315.623 284.139 321.66 275.462Z" fill="#455A64"/>
<path d="M332.7 290.517C332.7 290.517 341.591 290.385 344.504 286.067C344.504 286.067 343.823 288.708 340.37 290.333C337.895 291.402 335.288 292.035 332.642 292.208L332.7 290.517Z" fill="#37474F"/>
<path d="M289.126 235.656C284.71 234.798 282.866 246.922 287.282 247.767L294.33 248.559C291.464 248.229 293.449 236.964 295.633 237.624L289.126 235.656Z" fill="#455A64"/>
<path d="M466.853 232.42C466.854 234.879 466.196 237.281 464.965 239.312C463.733 241.344 461.986 242.911 459.951 243.809C457.916 244.708 455.687 244.895 453.556 244.348C451.424 243.801 449.489 242.543 448.002 240.741L447.286 239.763C445.614 237.257 444.862 234.124 445.184 231.011C445.507 227.899 446.879 225.045 449.019 223.037C451.158 221.03 453.901 220.022 456.682 220.222C459.463 220.422 462.07 221.815 463.964 224.113L464.704 225.117C466.099 227.229 466.852 229.79 466.853 232.42Z" fill="#455A64"/>
<path d="M466.854 232.42C466.855 234.879 466.197 237.281 464.966 239.312C463.734 241.344 461.987 242.911 459.952 243.809C457.917 244.708 455.688 244.895 453.557 244.348C451.425 243.801 449.49 242.543 448.003 240.741L447.287 239.763L401.998 178.259L421.084 165.871L463.965 224.087L464.705 225.091C466.105 227.21 466.858 229.781 466.854 232.42Z" fill="#455A64"/>
<path d="M429.388 215.45C431.29 217.693 433.878 219.04 436.63 219.22C439.381 219.399 442.091 218.397 444.211 216.416C446.33 214.435 447.702 211.623 448.049 208.548C448.395 205.473 447.691 202.365 446.077 199.852L440.475 192.258C442.149 194.766 442.903 197.902 442.58 201.017C442.257 204.132 440.882 206.989 438.739 208.996C436.597 211.004 433.85 212.009 431.067 211.804C428.284 211.599 425.677 210.2 423.785 207.895L429.388 215.45Z" fill="#0A61C9"/>
<path d="M420.355 69.1833C423.774 69.6112 427.08 70.8201 430.068 72.736L416.292 63.7289C407.048 56.584 393.741 57.0066 378.954 66.5948C351.036 84.7278 328.392 128.826 328.392 165.092C328.392 182.908 333.783 195.639 342.674 201.688L342.862 201.82L357.566 211.342C354.959 209.434 352.685 207.004 350.86 204.171C354.483 204.617 358.147 204.38 361.701 203.471C362.993 203.154 364.296 202.771 365.623 202.296C365.45 202.237 365.281 202.162 365.118 202.071C364.412 201.699 363.736 201.257 363.098 200.75C361.942 199.844 360.913 198.749 360.045 197.501C358.857 195.793 357.892 193.903 357.179 191.888C356.222 192.044 355.256 192.124 354.289 192.126C352.003 192.178 349.735 191.668 347.642 190.634C347.152 190.382 346.678 190.095 346.221 189.775C345.81 189.485 345.398 189.141 345.046 188.798C344.197 184.328 343.783 179.766 343.813 175.195C343.813 138.942 366.457 94.8311 394.399 76.698C397.966 74.358 401.746 72.4541 405.674 71.0191C406.732 71.5054 407.728 72.1495 408.634 72.9341C409.593 73.7615 410.457 74.7197 411.206 75.7868C412.397 77.4996 413.366 79.3939 414.083 81.4129C415.045 81.2616 416.014 81.1865 416.984 81.1884C419.64 81.1082 422.267 81.8239 424.595 83.2619C425.185 83.6229 425.746 84.0382 426.275 84.5033C426.063 83.4468 425.84 82.4034 425.57 81.4129C424.509 77.0131 422.742 72.8684 420.355 69.1833Z" fill="#263238"/>
<path d="M430.068 72.736L429.269 72.2473C426.493 70.6122 423.47 69.5732 420.355 69.1833C417.012 68.7642 413.631 68.938 410.336 69.6984C408.749 70.0367 407.18 70.4776 405.638 71.0191C401.71 72.4541 397.93 74.358 394.363 76.6981C366.421 94.8311 343.777 138.942 343.777 175.195C343.747 179.766 344.161 184.328 345.01 188.798C345.163 189.604 345.339 190.37 345.515 191.136C346.562 195.81 348.378 200.223 350.871 204.144C351.984 205.87 353.264 207.452 354.688 208.859C355.596 209.757 356.562 210.578 357.577 211.316C366.797 218.012 379.893 217.431 394.339 208.027C422.281 189.894 444.925 145.796 444.925 109.53C444.913 91.3973 439.241 78.6527 430.068 72.736ZM424.548 83.3015C425.137 83.6626 425.699 84.0778 426.227 84.543C427.113 85.3518 427.92 86.2637 428.635 87.2636C432.158 92.2294 434.026 99.9554 434.026 109.57C434.026 141.267 413.355 181.574 388.89 197.462C382.723 201.424 376.792 203.59 371.754 203.59C369.652 203.618 367.567 203.168 365.623 202.269C365.449 202.21 365.28 202.135 365.118 202.045C364.411 201.672 363.735 201.23 363.098 200.724C362.305 200.098 361.573 199.381 360.913 198.584C360.619 198.241 360.337 197.858 360.056 197.475C358.868 195.766 357.903 193.876 357.19 191.862C355.401 186.532 354.547 180.863 354.676 175.169C354.676 174.746 354.676 174.337 354.676 173.848C355.193 142.283 375.641 102.887 399.789 87.224C400.341 86.8674 400.905 86.5108 401.469 86.1806C405.363 83.7346 409.615 82.093 414.024 81.3337C414.985 81.1823 415.955 81.1073 416.925 81.1092C419.015 81.0889 421.087 81.5379 423.021 82.4298C423.55 82.6665 424.061 82.9537 424.548 83.2883V83.3015Z" fill="#455A64"/>
<path opacity="0.6" d="M429.305 105.898C429.305 137.595 408.634 177.902 384.169 193.79C378.003 197.752 372.083 199.918 367.033 199.918C364.935 199.946 362.853 199.497 360.913 198.598C360.62 198.254 360.338 197.871 360.056 197.488C358.869 195.78 357.904 193.89 357.19 191.875C355.401 186.546 354.548 180.877 354.677 175.182C354.677 174.759 354.677 174.35 354.677 173.861C355.194 142.297 375.642 102.9 399.79 87.2371C400.342 86.8805 400.905 86.524 401.469 86.1938C405.363 83.7478 409.616 82.1063 414.025 81.3469C414.986 81.1955 415.955 81.1205 416.926 81.1224C419.015 81.1021 421.088 81.5511 423.021 82.443C423.338 82.7996 423.632 83.1826 423.914 83.5656C427.437 88.5578 429.305 96.2839 429.305 105.898Z" fill="white"/>
</svg>
