<svg width="427" height="400" viewBox="0 0 427 400" fill="none" xmlns="http://www.w3.org/2000/svg">
<path d="M66.555 363.488C148.93 411.45 282.493 411.45 364.878 363.488C447.263 315.527 447.253 237.772 364.878 189.811C282.502 141.85 148.93 141.839 66.5451 189.811C-15.84 237.783 -15.8301 315.527 66.555 363.488Z" fill="#FAFAFA"/>
<path d="M284.646 372.298C301.301 372.298 314.802 365.126 314.802 356.278C314.802 347.431 301.301 340.258 284.646 340.258C267.991 340.258 254.49 347.431 254.49 356.278C254.49 365.126 267.991 372.298 284.646 372.298Z" fill="#F0F0F0"/>
<path d="M48.8373 79.2497V134.366C48.8373 136.174 49.9778 136.919 51.3937 136.01L166.216 62.123C166.959 61.5819 167.577 60.8537 168.021 59.9972C168.465 59.1406 168.722 58.1798 168.772 57.1921V2.03185C168.772 0.22386 167.622 -0.521254 166.216 0.388223L51.3937 74.275C50.6438 74.8185 50.0208 75.5531 49.5763 76.4182C49.1317 77.2832 48.8784 78.2539 48.8373 79.2497Z" fill="#F0F0F0"/>
<path d="M56.8309 78.384L91.244 56.2498C92.827 55.2307 94.0954 56.0525 94.0954 58.0797V96.6174C94.0414 97.7165 93.755 98.7858 93.2594 99.7379C92.7639 100.69 92.0733 101.498 91.244 102.096L56.8309 124.241C55.2577 125.249 53.9795 124.428 53.9795 122.4V83.8847C54.0328 82.7824 54.3188 81.7098 54.8142 80.7539C55.3097 79.7981 56.0007 78.9861 56.8309 78.384Z" fill="#FAFAFA"/>
<path d="M84.6957 75.4803L74.4602 99.1267L69.2491 95.7737C68.7487 95.4686 68.1617 95.3919 67.6115 95.5594C67.0614 95.727 66.591 96.1259 66.2994 96.6722L53.9795 120.351V122.422C53.9795 124.45 55.2577 125.271 56.8309 124.263L91.244 102.118C92.0716 101.518 92.761 100.71 93.2563 99.7579C93.7517 98.8061 94.0391 97.7378 94.0954 96.6393V83.0848L87.2128 75.042C87.0591 74.8024 86.8487 74.6152 86.605 74.5012C86.3614 74.3872 86.0941 74.3509 85.833 74.3964C85.5719 74.4418 85.3273 74.5673 85.1265 74.7587C84.9257 74.9501 84.7765 75.1999 84.6957 75.4803Z" fill="#BA68C8"/>
<path d="M59.1513 92.4864C61.2776 90.9408 63.0472 88.8585 64.3165 86.4083C65.5857 83.9581 66.319 81.209 66.4567 78.384C66.4567 76.0062 65.7685 74.2859 64.6377 73.3655L56.8309 78.384C56.0033 78.984 55.3139 79.7925 54.8186 80.7442C54.3232 81.696 54.0358 82.7643 53.9795 83.8628V93.0343C55.3265 93.9109 57.1357 93.7794 59.1513 92.4864Z" fill="#BA68C8"/>
<path d="M106.936 49.752L158.645 16.4739C159.824 15.7178 160.778 16.2547 160.778 17.6792C160.726 18.4775 160.506 19.2508 160.135 19.9363C159.764 20.6218 159.254 21.2 158.645 21.624L106.936 54.891C105.756 55.6471 104.803 55.1102 104.803 53.6857C104.856 52.8894 105.077 52.1182 105.448 51.4348C105.819 50.7514 106.328 50.1749 106.936 49.752Z" fill="#FAFAFA"/>
<path d="M106.936 61.1369L158.645 27.8588C159.824 27.1027 160.778 27.6396 160.778 29.0641C160.726 29.8624 160.506 30.6357 160.135 31.3212C159.764 32.0066 159.254 32.5849 158.645 33.0088L106.936 66.2759C105.756 67.032 104.803 66.4951 104.803 65.0816C104.855 64.2833 105.075 63.51 105.446 62.8245C105.816 62.139 106.327 61.5608 106.936 61.1369Z" fill="#FAFAFA"/>
<path d="M106.936 72.5217L158.645 39.2546C159.824 38.4986 160.778 39.0355 160.778 40.449C160.726 41.2473 160.506 42.0206 160.135 42.7061C159.764 43.3915 159.254 43.9698 158.645 44.3937L106.936 77.6608C105.756 78.4279 104.803 77.8909 104.803 76.4665C104.855 75.6682 105.075 74.8949 105.446 74.2094C105.816 73.5239 106.327 72.9457 106.936 72.5217Z" fill="#FAFAFA"/>
<path d="M106.936 83.9066L158.645 50.6395C159.824 49.8834 160.778 50.4204 160.778 51.8448C160.725 52.6412 160.504 53.4123 160.133 54.0958C159.762 54.7792 159.252 55.3557 158.645 55.7786L106.936 89.1115C105.756 89.8675 104.803 89.3306 104.803 87.9061C104.847 87.0983 105.064 86.314 105.435 85.6184C105.806 84.9228 106.321 84.3359 106.936 83.9066Z" fill="#FAFAFA"/>
<path d="M24.8463 252.664V171.786C24.8936 170.798 25.1498 169.836 25.594 168.979C26.0383 168.122 26.6581 167.394 27.4027 166.855L114.242 110.972C115.648 110.062 116.798 110.796 116.798 112.615V193.493C116.749 194.481 116.492 195.442 116.047 196.298C115.603 197.155 114.985 197.883 114.242 198.424L27.4027 254.307C25.9869 255.217 24.8463 254.483 24.8463 252.664Z" fill="#F0F0F0"/>
<path d="M24.8463 248.62V252.664C24.8463 254.483 25.9869 255.217 27.4027 254.307L114.242 198.424C114.985 197.883 115.603 197.155 116.047 196.298C116.492 195.442 116.749 194.481 116.798 193.493V189.439L24.8463 248.62Z" fill="#BA68C8"/>
<path d="M66.8598 175.271L75.7089 174.756C76.7905 174.69 77.0855 175.369 76.3677 176.29L66.2011 189.176C65.4833 190.085 64.9032 189.833 64.9032 188.628V177.583C64.907 176.993 65.1109 176.427 65.4739 175.998C65.8368 175.569 66.332 175.309 66.8598 175.271Z" fill="#BA68C8"/>
<path d="M64.5788 196.243C63.5183 196.259 62.4733 195.96 61.5504 195.378C59.3676 193.964 58.1681 190.995 58.1681 187.116C58.1681 179.204 63.1727 169.584 69.3278 165.584C72.366 163.623 75.2272 163.327 77.4296 164.729C79.6321 166.132 80.8218 169.112 80.8218 172.981C80.8218 180.903 75.8073 190.513 69.6621 194.512C68.1325 195.574 66.3798 196.171 64.5788 196.243ZM74.4111 164.609C72.7306 164.683 71.0967 165.246 69.6719 166.242C63.7037 170.077 58.8564 179.445 58.8564 187.116C58.8564 190.754 59.9379 193.46 61.9044 194.72C63.8708 195.98 66.5059 195.685 69.3278 193.866C75.296 190.02 80.1433 180.717 80.1433 172.981C80.1433 169.343 79.0618 166.647 77.0953 165.376C76.2726 164.863 75.3439 164.599 74.4013 164.609H74.4111Z" fill="#BA68C8"/>
<path d="M29.6346 96.6283L24.2564 93.1877C21.6901 91.2701 18.121 91.3468 14.1782 93.889C6.31236 98.9294 0 111.717 0 122.455V124.899C0 135.637 12.959 147.296 12.959 147.296L18.2488 150.638C18.2488 150.638 15.073 146.595 15.4368 145.762C18.9469 137.829 28.3368 115.41 28.3368 106.644V104.2C28.3567 102.432 28.1548 100.669 27.737 98.9623L28.3368 99.3458L29.6346 96.6283ZM14.1684 121.25C10.2355 123.77 7.07928 121.721 7.07928 116.692C9.1834 116.319 14.483 106.238 14.1684 103.006C18.1013 100.485 21.2477 102.534 21.2575 107.564C21.1243 110.306 20.4129 112.974 19.1812 115.352C17.9495 117.729 16.2321 119.75 14.1684 121.25Z" fill="#BA68C8"/>
<g opacity="0.2">
<path d="M29.6346 96.6283L24.2564 93.1877C21.6901 91.2701 18.121 91.3468 14.1782 93.889C6.31236 98.9294 0 111.717 0 122.455V124.899C0 135.637 12.959 147.296 12.959 147.296L18.2488 150.638C18.2488 150.638 15.073 146.595 15.4368 145.762C18.9469 137.829 28.3368 115.41 28.3368 106.644V104.2C28.3567 102.432 28.1548 100.669 27.737 98.9623L28.3368 99.3458L29.6346 96.6283ZM14.1684 121.25C10.2355 123.77 7.07928 121.721 7.07928 116.692C9.1834 116.319 14.483 106.238 14.1684 103.006C18.1013 100.485 21.2477 102.534 21.2575 107.564C21.1243 110.306 20.4129 112.974 19.1812 115.352C17.9495 117.729 16.2321 119.75 14.1684 121.25Z" fill="black"/>
</g>
<path d="M29.6348 96.6283C29.576 96.5818 29.5134 96.5414 29.4479 96.5078C26.921 94.9299 23.5485 95.1491 19.8319 97.5378C14.2275 101.154 9.38015 108.725 7.04989 116.692C6.14876 119.722 5.67123 122.89 5.63403 126.082V128.559C5.63403 136.832 14.0407 146.43 17.9048 150.408C17.9884 150.491 18.0771 150.568 18.1703 150.638C18.3975 150.793 18.6513 150.894 18.9154 150.933C19.1796 150.972 19.4481 150.949 19.7038 150.865C19.9594 150.781 20.1965 150.639 20.3998 150.447C20.6031 150.255 20.768 150.018 20.884 149.751C24.227 142.08 33.9511 119.201 33.9511 110.303V107.86C34.0101 102.337 32.3288 98.4363 29.6348 96.6283ZM12.8706 121.918C12.789 121.397 12.7495 120.869 12.7526 120.34C12.8825 117.598 13.5913 114.928 14.8214 112.548C16.0515 110.168 17.7682 108.145 19.8319 106.644C20.2442 106.379 20.6749 106.152 21.12 105.964C24.4236 104.627 26.921 106.742 26.921 111.202C26.7886 113.942 26.0775 116.609 24.8457 118.985C23.6138 121.362 21.896 123.38 19.8319 124.877C16.3611 127.134 13.4704 125.775 12.8706 121.918Z" fill="#BA68C8"/>
<path d="M26.9209 111.213C26.7885 113.953 26.0774 116.62 24.8455 118.996C23.6137 121.373 21.8958 123.391 19.8318 124.888C16.361 127.079 13.4703 125.775 12.8705 121.918C13.321 121.742 13.7556 121.518 14.1684 121.25C16.2308 119.75 17.9467 117.728 19.1767 115.351C20.4068 112.973 21.1163 110.305 21.2476 107.564C21.2521 107.031 21.2093 106.499 21.1198 105.975C24.4235 104.638 26.9209 106.753 26.9209 111.213Z" fill="#BA68C8"/>
<g opacity="0.2">
<path d="M26.9209 111.213C26.7885 113.953 26.0774 116.62 24.8455 118.996C23.6137 121.373 21.8958 123.391 19.8318 124.888C16.361 127.079 13.4703 125.775 12.8705 121.918C13.321 121.742 13.7556 121.518 14.1684 121.25C16.2308 119.75 17.9467 117.728 19.1767 115.351C20.4068 112.973 21.1163 110.305 21.2476 107.564C21.2521 107.031 21.2093 106.499 21.1198 105.975C24.4235 104.638 26.9209 106.753 26.9209 111.213Z" fill="black"/>
</g>
<path d="M130.229 247.262C130.229 247.262 133.779 222.059 125.893 200.385C118.008 178.711 107.379 177.374 101.873 180.454C96.3665 183.533 99.9062 195.553 104.822 203.629C111.371 214.225 122.186 237.038 121.832 257.529L130.229 247.262Z" fill="#BA68C8"/>
<path opacity="0.2" d="M130.229 247.262C130.229 247.262 133.779 222.059 125.893 200.385C118.008 178.711 107.379 177.374 101.873 180.454C96.3665 183.533 99.9062 195.553 104.822 203.629C111.371 214.225 122.186 237.038 121.832 257.529L130.229 247.262Z" fill="black"/>
<path d="M126.69 248.862C126.601 248.859 126.514 248.836 126.434 248.795C126.354 248.754 126.282 248.696 126.222 248.623C126.163 248.551 126.117 248.466 126.087 248.373C126.058 248.28 126.045 248.182 126.05 248.084C127.348 213.578 111.882 187.817 105.206 182.798C105.133 182.744 105.07 182.674 105.022 182.592C104.973 182.51 104.939 182.419 104.923 182.323C104.906 182.227 104.906 182.128 104.923 182.032C104.941 181.936 104.975 181.844 105.024 181.763C105.073 181.682 105.136 181.612 105.209 181.558C105.283 181.504 105.365 181.466 105.451 181.447C105.537 181.428 105.626 181.429 105.712 181.448C105.798 181.467 105.88 181.506 105.953 181.56C113.819 187.412 128.685 213.754 127.378 248.149C127.375 248.247 127.355 248.343 127.319 248.431C127.283 248.52 127.232 248.6 127.168 248.666C127.103 248.732 127.028 248.784 126.946 248.817C126.864 248.851 126.777 248.866 126.69 248.862Z" fill="white"/>
<path d="M128.833 277.187C127.486 273.417 124.006 269.21 115.068 264.717C106.13 260.225 99.405 254.231 98.1662 249.892C97.7933 248.693 97.7446 247.399 98.026 246.17C98.3075 244.94 98.9066 243.83 99.7491 242.977C99.7491 242.977 91.3228 241.882 90.2609 236.129C88.9336 228.875 96.298 228.404 96.298 228.404C96.298 228.404 86.6328 213.239 84.0666 206.489C81.5003 199.739 84.4599 199.333 90.6936 201.908C96.9273 204.483 108.805 217.446 110.643 221.402C110.643 221.402 113.859 217.019 117.32 219.901C120.781 222.783 120.948 231.406 118.903 234.518C120.282 234.232 121.706 234.397 123.002 234.994C124.299 235.591 125.412 236.594 126.208 237.882C129.728 243.021 130.888 255.874 130.888 255.874L128.833 277.187Z" fill="#BA68C8"/>
<path d="M129.462 273.68C129.313 273.678 129.168 273.621 129.051 273.518C128.934 273.415 128.85 273.272 128.813 273.111C124.035 250.922 101.352 215.507 87.2619 204.242C87.1902 204.186 87.1293 204.114 87.0826 204.03C87.0359 203.947 87.0044 203.855 86.9898 203.758C86.9752 203.662 86.9778 203.563 86.9975 203.467C87.0172 203.372 87.0536 203.281 87.1046 203.201C87.1556 203.122 87.2202 203.054 87.2947 203.002C87.3693 202.95 87.4523 202.914 87.539 202.898C87.6258 202.882 87.7145 202.885 87.8002 202.907C87.886 202.929 87.967 202.969 88.0386 203.026C102.305 214.433 125.274 250.297 130.121 272.76C130.16 272.953 130.129 273.155 130.035 273.323C129.941 273.491 129.792 273.612 129.62 273.658L129.462 273.68Z" fill="white"/>
<path d="M307.437 50.2451C307.32 50.2435 307.205 50.2096 307.103 50.1464L304.34 48.3604C304.264 48.3114 304.197 48.2463 304.144 48.1686C304.09 48.0909 304.051 48.0022 304.028 47.9076C304.005 47.8129 303.999 47.7142 304.011 47.6171C304.022 47.5199 304.05 47.4262 304.094 47.3413C304.138 47.2564 304.197 47.182 304.266 47.1223C304.336 47.0626 304.416 47.0187 304.501 46.9933C304.586 46.9679 304.674 46.9613 304.761 46.974C304.848 46.9867 304.933 47.0184 305.009 47.0674L307.772 48.8535C307.848 48.9023 307.915 48.9674 307.968 49.0451C308.022 49.1228 308.061 49.2115 308.084 49.3061C308.107 49.4008 308.113 49.4996 308.101 49.5967C308.09 49.6939 308.061 49.7876 308.017 49.8725C307.959 49.986 307.874 50.0801 307.772 50.1455C307.67 50.2109 307.555 50.2453 307.437 50.2451Z" fill="white"/>
<path d="M128.833 115.212V278.239C128.833 280.058 129.974 280.792 131.38 279.882L302.01 170.099C302.753 169.558 303.371 168.829 303.815 167.973C304.259 167.116 304.517 166.155 304.566 165.168V2.14143C304.566 0.322475 303.416 -0.411681 302.01 0.497796L131.38 110.281C130.637 110.823 130.02 111.551 129.577 112.408C129.135 113.264 128.88 114.225 128.833 115.212Z" fill="#455A64"/>
<path d="M148.803 145.324C148.803 151.011 152.608 153.158 157.318 150.134L292.581 63.0983V42.5419L157.318 129.567C152.608 132.602 148.803 139.648 148.803 145.324Z" fill="#F5F5F5"/>
<path d="M304.085 35.1675C308.784 32.1432 312.599 34.2909 312.599 39.9669C312.599 45.6429 308.784 52.6996 304.085 55.7238L292.63 63.0983V42.5419L304.085 35.1675Z" fill="#BA68C8"/>
<path d="M299.955 52.4914C299.465 52.4991 298.983 52.359 298.559 52.0859C298.037 51.6963 297.618 51.1567 297.348 50.5241C297.078 49.8915 296.967 49.1893 297.025 48.4919C297.096 46.7768 297.535 45.1056 298.304 43.6185C299.074 42.1314 300.153 40.8717 301.45 39.945C301.945 39.4949 302.551 39.2235 303.188 39.1669C303.825 39.1102 304.462 39.271 305.015 39.6279C305.568 39.9848 306.01 40.5208 306.283 41.1646C306.556 41.8085 306.647 42.5296 306.543 43.2322C306.47 44.9467 306.03 46.6168 305.26 48.1035C304.491 49.5902 303.413 50.8504 302.118 51.7791C301.466 52.2236 300.72 52.4692 299.955 52.4914ZM303.603 40.712C303.076 40.741 302.564 40.9223 302.118 41.238C301.032 42.042 300.128 43.1152 299.476 44.3737C298.825 45.6322 298.443 47.0417 298.362 48.4919C298.261 48.9282 298.291 49.3896 298.447 49.8053C298.604 50.221 298.878 50.568 299.229 50.7931C299.579 51.0183 299.986 51.1091 300.387 51.0516C300.788 50.9942 301.162 50.7917 301.45 50.4752C302.537 49.6724 303.442 48.5994 304.093 47.3407C304.745 46.082 305.126 44.6718 305.206 43.2213C305.256 42.7868 305.203 42.3452 305.051 41.9411C304.899 41.537 304.654 41.1848 304.34 40.9202C304.116 40.7771 303.861 40.7051 303.603 40.712Z" fill="white"/>
<path d="M306.051 80.1592L175.281 164.247C174.535 164.785 173.915 165.513 173.47 166.37C173.026 167.227 172.77 168.19 172.725 169.178V214.027C172.725 215.846 173.865 216.581 175.281 215.671L306.051 131.55C306.796 131.011 307.415 130.283 307.86 129.426C308.304 128.569 308.56 127.607 308.607 126.619V81.8028C308.558 79.9838 307.418 79.2497 306.051 80.1592Z" fill="#BA68C8"/>
<path opacity="0.2" d="M306.051 80.1592L175.281 164.247C174.535 164.785 173.915 165.513 173.47 166.37C173.026 167.227 172.77 168.19 172.725 169.178V214.027C172.725 215.846 173.865 216.581 175.281 215.671L306.051 131.55C306.796 131.011 307.415 130.283 307.86 129.426C308.304 128.569 308.56 127.607 308.607 126.619V81.8028C308.558 79.9838 307.418 79.2497 306.051 80.1592Z" fill="white"/>
<path d="M222.82 141.138L246.516 125.885C247.696 125.129 248.65 125.666 248.65 127.09C248.596 127.887 248.375 128.658 248.005 129.341C247.634 130.025 247.124 130.601 246.516 131.024L222.82 146.277C221.64 147.033 220.687 146.496 220.687 145.072C220.74 144.275 220.961 143.504 221.332 142.821C221.702 142.137 222.212 141.561 222.82 141.138Z" fill="white"/>
<path d="M220.687 155.35C220.687 156.774 221.67 157.311 222.82 156.555L294.449 110.468C295.055 110.042 295.564 109.463 295.933 108.778C296.302 108.092 296.521 107.32 296.572 106.523C296.572 105.109 295.589 104.573 294.449 105.329L222.82 151.416C222.212 151.839 221.702 152.415 221.332 153.099C220.961 153.782 220.74 154.553 220.687 155.35Z" fill="white"/>
<path d="M220.687 165.628C220.687 167.053 221.67 167.589 222.82 166.833L294.449 120.746C295.055 120.32 295.564 119.741 295.933 119.056C296.302 118.371 296.521 117.598 296.572 116.801C296.572 115.388 295.589 114.851 294.449 115.607L222.82 161.694C222.212 162.117 221.702 162.694 221.332 163.377C220.961 164.061 220.74 164.832 220.687 165.628Z" fill="white"/>
<path d="M220.687 175.906C220.687 177.331 221.67 177.868 222.82 177.112L294.449 131.024C295.055 130.598 295.564 130.019 295.933 129.334C296.302 128.649 296.521 127.876 296.572 127.079C296.572 125.666 295.589 125.129 294.449 125.885L222.82 171.972C222.212 172.395 221.702 172.972 221.332 173.655C220.961 174.339 220.74 175.11 220.687 175.906Z" fill="white"/>
<path d="M179.312 166.811L210.146 146.967C211.562 146.069 212.703 146.803 212.703 148.611V183.16C212.655 184.148 212.398 185.11 211.954 185.966C211.51 186.823 210.891 187.551 210.146 188.091L179.312 207.924C177.906 208.834 176.756 208.099 176.756 206.291V171.742C176.803 170.754 177.059 169.792 177.504 168.935C177.948 168.078 178.568 167.351 179.312 166.811Z" fill="white"/>
<path d="M204.286 164.214L195.113 185.406L190.442 182.404C189.991 182.114 189.455 182.035 188.952 182.185C188.449 182.335 188.019 182.702 187.758 183.204L176.756 204.429V206.28C176.756 208.099 177.906 208.834 179.312 207.924L210.146 188.091C210.891 187.552 211.511 186.824 211.955 185.967C212.399 185.11 212.656 184.148 212.703 183.16V171.03L206.499 163.82C206.358 163.619 206.172 163.463 205.959 163.369C205.746 163.276 205.514 163.248 205.288 163.288C205.062 163.328 204.85 163.436 204.673 163.599C204.497 163.762 204.364 163.974 204.286 164.214Z" fill="#BA68C8"/>
<path d="M181.387 179.456C183.293 178.07 184.88 176.203 186.017 174.006C187.155 171.809 187.812 169.344 187.935 166.811C188.001 165.971 187.887 165.124 187.603 164.342C187.32 163.559 186.874 162.862 186.303 162.308L179.312 166.811C178.568 167.351 177.948 168.078 177.504 168.935C177.059 169.792 176.803 170.754 176.756 171.742V179.96C177.946 180.727 179.578 180.618 181.387 179.456Z" fill="#BA68C8"/>
<path d="M306.051 146.967L175.281 231.056C174.536 231.595 173.917 232.322 173.472 233.179C173.028 234.036 172.772 234.998 172.725 235.986V280.869C172.725 282.677 173.865 283.411 175.281 282.512L306.051 198.369C306.796 197.83 307.415 197.102 307.86 196.245C308.304 195.388 308.56 194.427 308.607 193.438V148.611C308.558 146.803 307.418 146.091 306.051 146.967Z" fill="#BA68C8"/>
<path opacity="0.2" d="M306.051 146.967L175.281 231.056C174.536 231.595 173.917 232.322 173.472 233.179C173.028 234.036 172.772 234.998 172.725 235.986V280.869C172.725 282.677 173.865 283.411 175.281 282.512L306.051 198.369C306.796 197.83 307.415 197.102 307.86 196.245C308.304 195.388 308.56 194.427 308.607 193.438V148.611C308.558 146.803 307.418 146.091 306.051 146.967Z" fill="white"/>
<path d="M222.82 207.946L246.516 192.704C247.696 191.948 248.65 192.485 248.65 193.898C248.598 194.697 248.377 195.47 248.007 196.156C247.636 196.841 247.125 197.419 246.516 197.843L222.82 213.085C221.64 213.841 220.687 213.304 220.687 211.891C220.738 211.092 220.959 210.319 221.33 209.634C221.7 208.948 222.211 208.37 222.82 207.946Z" fill="white"/>
<path d="M220.687 222.169C220.687 223.582 221.67 224.119 222.82 223.363L294.449 177.276C295.054 176.851 295.562 176.274 295.931 175.591C296.3 174.907 296.519 174.137 296.572 173.342C296.572 171.918 295.589 171.381 294.449 172.137L222.82 218.224C222.211 218.648 221.7 219.226 221.33 219.912C220.959 220.597 220.738 221.371 220.687 222.169Z" fill="white"/>
<path d="M220.687 232.447C220.687 233.861 221.67 234.398 222.82 233.641L294.449 187.554C295.054 187.129 295.562 186.552 295.931 185.869C296.3 185.186 296.519 184.415 296.572 183.62C296.572 182.196 295.589 181.659 294.449 182.415L222.82 228.502C222.211 228.926 221.7 229.505 221.33 230.19C220.959 230.876 220.738 231.649 220.687 232.447Z" fill="white"/>
<path d="M220.687 242.725C220.687 244.139 221.67 244.676 222.82 243.92L294.449 197.832C295.054 197.407 295.562 196.83 295.931 196.147C296.3 195.464 296.519 194.694 296.572 193.898C296.572 192.474 295.589 191.937 294.449 192.693L222.82 238.781C222.211 239.205 221.7 239.783 221.33 240.468C220.959 241.154 220.738 241.927 220.687 242.725Z" fill="white"/>
<path d="M179.312 233.631L210.146 213.786C211.562 212.877 212.703 213.611 212.703 215.43V249.968C212.657 250.957 212.402 251.919 211.957 252.777C211.513 253.634 210.892 254.361 210.146 254.899L179.312 274.743C177.906 275.653 176.756 274.919 176.756 273.1V238.561C176.803 237.573 177.059 236.611 177.504 235.754C177.948 234.898 178.568 234.17 179.312 233.631Z" fill="white"/>
<path d="M204.286 231.034L195.113 252.225L190.442 249.212C190.218 249.069 189.971 248.976 189.715 248.94C189.459 248.903 189.199 248.923 188.95 248.998C188.7 249.073 188.467 249.203 188.262 249.378C188.058 249.554 187.887 249.773 187.758 250.023L176.756 271.248V273.1C176.756 274.919 177.906 275.653 179.312 274.743L210.146 254.899C210.891 254.362 211.511 253.637 211.955 252.781C212.399 251.926 212.656 250.966 212.703 249.979V237.838L206.499 230.639C206.36 230.434 206.174 230.276 205.96 230.18C205.746 230.084 205.513 230.055 205.286 230.095C205.059 230.136 204.846 230.245 204.669 230.41C204.493 230.575 204.361 230.791 204.286 231.034Z" fill="#BA68C8"/>
<path d="M181.387 246.265C183.293 244.881 184.879 243.016 186.017 240.821C187.155 238.625 187.812 236.162 187.935 233.631C188.001 232.79 187.887 231.943 187.603 231.161C187.32 230.378 186.874 229.681 186.303 229.127L179.312 233.631C178.568 234.17 177.948 234.898 177.504 235.754C177.059 236.611 176.803 237.573 176.756 238.561V246.78C177.946 247.536 179.578 247.426 181.387 246.265Z" fill="#BA68C8"/>
<path d="M304.566 9.12139V2.14143C304.566 0.322475 303.416 -0.411681 302.01 0.497796L131.389 110.281C130.645 110.821 130.025 111.548 129.581 112.405C129.136 113.262 128.88 114.224 128.833 115.212V122.203L304.566 9.12139Z" fill="#BA68C8"/>
<path d="M283.633 14.9946C283.083 15.3971 282.626 15.9381 282.298 16.5738C281.97 17.2095 281.781 17.9222 281.746 18.6545C281.746 20.0022 282.591 20.5501 283.633 19.8707C284.187 19.4738 284.647 18.9359 284.977 18.3015C285.307 17.667 285.497 16.9542 285.531 16.2219C285.531 14.8741 284.685 14.3262 283.633 14.9946Z" fill="#F5F5F5"/>
<path d="M291.155 10.2172C290.603 10.6184 290.144 11.1588 289.814 11.7946C289.484 12.4304 289.294 13.1438 289.257 13.877C289.257 15.2247 290.113 15.7617 291.155 15.0933C291.708 14.6939 292.169 14.154 292.499 13.5178C292.829 12.8816 293.019 12.1672 293.053 11.4334C293.053 10.0309 292.207 9.49395 291.155 10.2172Z" fill="#F5F5F5"/>
<path d="M298.677 5.33009C298.124 5.72703 297.663 6.26493 297.333 6.89937C297.003 7.53382 296.813 8.24663 296.779 8.97895C296.779 10.3267 297.625 10.8746 298.677 10.2062C299.227 9.80369 299.684 9.26276 300.012 8.62704C300.34 7.99131 300.529 7.27859 300.565 6.54637C300.565 5.1986 299.719 4.65072 298.677 5.33009Z" fill="#F5F5F5"/>
<path d="M307.29 349.046C307.587 349.889 307.792 350.768 307.9 351.665C308.177 352.593 308.241 353.584 308.086 354.547C307.424 355.777 306.371 356.684 305.137 357.089C304.258 357.315 303.347 357.334 302.462 357.145C301.577 356.956 300.736 356.564 299.994 355.993C298.195 354.799 296.848 353.342 294.292 352.542C292.468 352.104 290.751 351.233 289.257 349.989C287.842 348.729 285.954 345.222 288.658 344.411C291.362 343.6 297.251 346.46 302.61 346.723L307.29 349.046Z" fill="#263238"/>
<path d="M307.034 345.102C307.034 345.102 307.349 349.287 307.349 349.802C307.349 351.216 302.669 353.09 301.803 349.802L301.056 345.354L307.034 345.102Z" fill="#F28F8F"/>
<path d="M301.292 253.266C302.901 255.903 304.375 258.64 305.707 261.463C305.707 261.463 306.169 267.555 306.169 271.609C306.169 279.061 305.137 284.813 304.203 299.496C305.723 302.385 306.594 305.641 306.739 308.986C307.133 315.637 307.142 315.56 307.182 346.241C306.286 346.78 305.303 347.113 304.29 347.223C303.276 347.332 302.254 347.214 301.282 346.877L292.433 303.912L291.45 287.049L288.677 266.087L301.292 253.266Z" fill="#37474F"/>
<path d="M280.349 356.728C280.664 357.089 280.555 357.823 280.703 359.029C280.866 359.956 280.909 360.904 280.831 361.845C280.315 363.148 279.383 364.19 278.215 364.77C277.367 365.112 276.464 365.253 275.564 365.187C274.664 365.121 273.786 364.849 272.985 364.387C271.077 363.445 269.573 362.195 266.948 361.746C265.09 361.568 263.288 360.944 261.668 359.916C260.124 358.821 257.853 355.643 260.448 354.438C263.044 353.232 269.553 355.391 274.892 354.909L280.349 356.728Z" fill="#263238"/>
<path d="M281.578 351.468C281.578 351.468 280.595 356.245 280.329 357.308C279.74 359.861 274.656 359.993 274.656 357.045L275 350.252L281.578 351.468Z" fill="#F28F8F"/>
<path d="M289.818 254.57C292.364 260.148 294.822 265.068 294.901 271.007C295.088 283.575 290.408 297.414 288.687 306.498C289.2 309.786 289.345 313.131 289.12 316.459C288.775 320.261 280.998 354.81 280.998 354.81C280.998 354.81 276.672 355.818 274.833 353.638L277.016 287.114L277.606 267.796L289.818 254.57Z" fill="#37474F"/>
<path d="M286.317 220.503L287.92 230.398L295.943 229.741L294.262 218.531L286.317 220.503Z" fill="#FFA8A7"/>
<path d="M304.409 229.017C303.613 226.333 300.555 223.407 297.526 224.043C292.978 224.904 288.495 226.15 284.115 227.768C281.313 228.864 278.757 231.592 278.521 241.871L277.646 267.73C278.857 268.931 280.311 269.788 281.883 270.229C286.141 271.533 288.953 272.311 295.422 270.733C303.849 268.684 305.854 262.997 305.854 262.997C305.854 262.997 305.53 249.311 305.274 241.871C305.068 235.548 304.95 230.869 304.409 229.017Z" fill="#455A64"/>
<path d="M282.896 207.869L242.042 195.52C238.346 194.808 236.802 204.867 240.499 205.568L282.453 210.291L282.896 207.869Z" fill="#263238"/>
<path d="M271.146 228.733L262.799 229.017C262.799 229.017 264.057 215.178 264.834 213.359C265.611 211.54 267.469 211.168 269.317 210.587C271.166 210.006 271.156 209.02 271.156 209.02L269.494 208.834C268.039 208.669 267.459 206.642 268.088 205.272C268.393 204.637 268.885 203.629 269.77 203.903L271.972 204.571C272.006 203.488 271.764 202.417 271.274 201.481C270.537 200.572 270.045 200.857 268.57 200.287C267.479 199.859 265.247 199.103 263.447 199.925C261.648 200.747 260.281 204.516 259.819 207.179C259.352 210.258 258.594 213.274 257.558 216.175C255.955 221.106 253.625 231.231 253.379 235.285C253.271 237.159 253.428 238.277 255.296 238.77C257.165 239.263 270.91 239.296 270.91 239.296L271.146 228.733Z" fill="#FFA8A7"/>
<path d="M280.379 208.79C280.379 208.79 278.412 211.989 278.688 212.34C279.132 212.67 279.624 212.911 280.143 213.052L280.379 208.79Z" fill="#FFA8A7"/>
<path d="M286.308 198.687C284.44 199.783 281.215 201.678 280.32 209.305C279.405 217.128 280.615 219.649 281.559 220.69C282.208 221.391 285.688 221.435 287.458 220.843C289.641 220.12 294.567 218.027 296.818 214.006C299.463 209.272 300.053 202.938 297.074 200.418C295.558 199.137 293.775 198.305 291.892 198.003C290.008 197.7 288.087 197.935 286.308 198.687Z" fill="#FFA8A7"/>
<path d="M291.804 293.108L296.061 279.696C299.361 278.392 302.318 276.193 304.664 273.297C304.664 273.297 303.681 277.121 296.956 281.044L292.285 293.733V300.789L291.804 293.108Z" fill="#263238"/>
<path d="M279.936 201.262C280.546 203.136 281.578 207.738 285.885 209.655C285.885 209.655 286.504 206.73 288.707 207.037C290.909 207.343 291.293 210.488 289.936 212.439C288.579 214.389 287.261 213.688 287.261 213.688C287.261 213.688 286.966 217.885 289.483 219.791C290.42 220.407 291.473 220.772 292.558 220.858C293.643 220.943 294.731 220.747 295.737 220.284C297.182 219.55 299.237 215.682 300.437 212.504C302.973 205.798 303.337 200.451 299.453 198.72C298.972 195.674 297.743 194.523 295.265 193.953C289.936 192.737 285.904 196.638 281.431 195.948C279.14 195.586 279.228 199.114 279.936 201.262Z" fill="#263238"/>
<path d="M299.581 199.783L302.098 198.04C301.879 197.699 301.551 197.463 301.181 197.381C300.812 197.298 300.428 197.376 300.107 197.598C299.787 197.819 299.554 198.168 299.457 198.574C299.359 198.98 299.403 199.412 299.581 199.783Z" fill="#263238"/>
<path d="M269.278 228.546C269.278 228.546 281.028 227.79 284.026 227.768C287.025 227.746 290.211 233.455 288.343 237.345C287.104 239.898 283.24 240.775 278.373 241.038C273.506 241.301 268.599 241.301 268.599 241.301C268.599 241.301 264.224 235.745 269.278 228.546Z" fill="#455A64"/>
<path d="M278.521 241.038C278.521 241.038 285.964 240.928 288.402 237.345C288.402 237.345 287.832 239.537 284.941 240.884C282.869 241.772 280.687 242.297 278.471 242.44L278.521 241.038Z" fill="#37474F"/>
<path d="M242.042 195.52C238.346 194.808 236.802 204.867 240.499 205.568L246.398 206.226C243.999 205.952 245.661 196.605 247.49 197.153L242.042 195.52Z" fill="#455A64"/>
<path d="M390.825 192.836C390.826 194.875 390.275 196.868 389.244 198.554C388.214 200.239 386.751 201.539 385.047 202.285C383.344 203.03 381.478 203.186 379.693 202.732C377.909 202.278 376.289 201.235 375.044 199.739L374.445 198.928C373.045 196.848 372.416 194.249 372.685 191.667C372.955 189.084 374.104 186.716 375.895 185.05C377.686 183.385 379.983 182.549 382.311 182.715C384.639 182.881 386.821 184.037 388.407 185.943L389.026 186.776C390.194 188.528 390.825 190.653 390.825 192.836Z" fill="#455A64"/>
<path d="M390.825 192.836C390.826 194.875 390.275 196.868 389.244 198.554C388.214 200.239 386.751 201.539 385.047 202.285C383.343 203.03 381.478 203.186 379.693 202.732C377.909 202.278 376.289 201.235 375.044 199.739L374.444 198.928L336.531 147.899L352.509 137.621L388.406 185.921L389.026 186.754C390.198 188.512 390.829 190.645 390.825 192.836Z" fill="#455A64"/>
<path d="M359.46 178.755C361.053 180.616 363.219 181.734 365.523 181.883C367.827 182.032 370.095 181.2 371.869 179.557C373.644 177.913 374.792 175.58 375.082 173.029C375.372 170.478 374.783 167.899 373.432 165.814L368.742 159.514C370.144 161.595 370.775 164.196 370.504 166.781C370.234 169.365 369.083 171.735 367.289 173.401C365.495 175.067 363.196 175.901 360.866 175.731C358.536 175.561 356.354 174.4 354.77 172.487L359.46 178.755Z" fill="#BA68C8"/>
<path d="M351.899 57.4003C354.761 57.7553 357.528 58.7584 360.03 60.3479L348.497 52.8749C340.759 46.9468 329.619 47.2975 317.24 55.2527C293.869 70.2974 274.912 106.885 274.912 136.974C274.912 151.756 279.425 162.319 286.868 167.337L287.025 167.447L299.335 175.347C297.152 173.764 295.249 171.748 293.721 169.397C296.754 169.767 299.821 169.571 302.796 168.817C303.878 168.554 304.969 168.236 306.08 167.841C305.935 167.793 305.794 167.73 305.658 167.655C305.066 167.346 304.5 166.98 303.966 166.559C302.999 165.808 302.137 164.899 301.41 163.864C300.416 162.446 299.608 160.878 299.011 159.207C298.21 159.336 297.402 159.402 296.592 159.404C294.678 159.447 292.779 159.024 291.027 158.166C290.617 157.957 290.22 157.719 289.837 157.454C289.493 157.213 289.149 156.928 288.854 156.643C288.143 152.934 287.797 149.149 287.822 145.357C287.822 115.278 306.778 78.6799 330.17 63.6352C333.156 61.6936 336.32 60.1141 339.609 58.9234C340.495 59.3269 341.328 59.8613 342.086 60.5123C342.889 61.1987 343.613 61.9938 344.24 62.8791C345.237 64.3002 346.048 65.8719 346.649 67.547C347.453 67.4214 348.265 67.3592 349.077 67.3607C351.3 67.2942 353.499 67.888 355.448 69.0811C355.942 69.3807 356.412 69.7252 356.855 70.1111C356.678 69.2345 356.491 68.3688 356.265 67.547C355.376 63.8966 353.897 60.4578 351.899 57.4003Z" fill="#263238"/>
<path d="M360.031 60.3479L359.362 59.9425C357.038 58.5859 354.507 57.7238 351.899 57.4003C349.101 57.0526 346.271 57.1968 343.512 57.8277C342.184 58.1083 340.87 58.4742 339.579 58.9234C336.291 60.1141 333.127 61.6937 330.14 63.6352C306.749 78.6799 287.793 115.278 287.793 145.357C287.768 149.149 288.114 152.934 288.825 156.643C288.953 157.311 289.1 157.947 289.248 158.582C290.124 162.461 291.645 166.122 293.731 169.376C294.663 170.807 295.735 172.119 296.927 173.287C297.687 174.032 298.495 174.713 299.346 175.325C307.064 180.881 318.027 180.399 330.121 172.597C353.512 157.552 372.469 120.965 372.469 90.8756C372.459 75.8309 367.71 65.2569 360.031 60.3479ZM355.409 69.114C355.903 69.4135 356.373 69.7581 356.815 70.144C357.557 70.815 358.233 71.5717 358.831 72.4012C361.781 76.5213 363.344 82.9314 363.344 90.9085C363.344 117.207 346.039 150.649 325.559 163.831C320.397 167.118 315.431 168.915 311.213 168.915C309.454 168.938 307.708 168.566 306.081 167.82C305.935 167.771 305.794 167.708 305.658 167.633C305.066 167.324 304.5 166.958 303.967 166.538C303.303 166.019 302.69 165.424 302.138 164.762C301.892 164.477 301.656 164.16 301.42 163.842C300.426 162.424 299.619 160.856 299.021 159.185C297.523 154.763 296.809 150.06 296.917 145.335C296.917 144.984 296.917 144.644 296.917 144.239C297.35 118.05 314.468 85.364 334.683 72.3684C335.145 72.0725 335.617 71.7766 336.089 71.5027C339.349 69.4733 342.909 68.1113 346.6 67.4813C347.404 67.3557 348.216 67.2935 349.028 67.295C350.778 67.2782 352.513 67.6507 354.131 68.3908C354.575 68.5871 355.002 68.8254 355.409 69.103V69.114Z" fill="#455A64"/>
<path opacity="0.6" d="M359.391 87.8623C359.391 114.16 342.086 147.603 321.606 160.785C316.444 164.072 311.488 165.869 307.26 165.869C305.504 165.892 303.762 165.519 302.138 164.773C301.892 164.488 301.656 164.171 301.42 163.853C300.426 162.435 299.618 160.867 299.021 159.196C297.523 154.774 296.808 150.071 296.917 145.346C296.917 144.995 296.917 144.655 296.917 144.25C297.349 118.061 314.467 85.3749 334.683 72.3793C335.145 72.0834 335.617 71.7876 336.089 71.5137C339.349 69.4843 342.908 68.1223 346.599 67.4922C347.404 67.3667 348.216 67.3044 349.028 67.306C350.778 67.2891 352.512 67.6617 354.131 68.4017C354.397 68.6976 354.642 69.0153 354.878 69.3331C357.828 73.4751 359.391 79.8852 359.391 87.8623Z" fill="white"/>
</svg>
